<svg xmlns="http://www.w3.org/2000/svg" viewBox="0 0 530 530" width="530" height="530">
  <rect width="530" height="530" fill="white"/>
  <rect x="80" y="80" width="10" height="10" fill="#003087"/>
  <rect x="90" y="80" width="10" height="10" fill="#003087"/>
  <rect x="100" y="80" width="10" height="10" fill="#003087"/>
  <rect x="110" y="80" width="10" height="10" fill="#003087"/>
  <rect x="120" y="80" width="10" height="10" fill="#003087"/>
  <rect x="130" y="80" width="10" height="10" fill="#003087"/>
  <rect x="140" y="80" width="10" height="10" fill="#003087"/>
  <rect x="200" y="80" width="10" height="10" fill="#003087"/>
  <rect x="210" y="80" width="10" height="10" fill="#003087"/>
  <rect x="240" y="80" width="10" height="10" fill="#003087"/>
  <rect x="260" y="80" width="10" height="10" fill="#003087"/>
  <rect x="270" y="80" width="10" height="10" fill="#003087"/>
  <rect x="280" y="80" width="10" height="10" fill="#003087"/>
  <rect x="340" y="80" width="10" height="10" fill="#003087"/>
  <rect x="350" y="80" width="10" height="10" fill="#003087"/>
  <rect x="380" y="80" width="10" height="10" fill="#003087"/>
  <rect x="390" y="80" width="10" height="10" fill="#003087"/>
  <rect x="400" y="80" width="10" height="10" fill="#003087"/>
  <rect x="410" y="80" width="10" height="10" fill="#003087"/>
  <rect x="420" y="80" width="10" height="10" fill="#003087"/>
  <rect x="430" y="80" width="10" height="10" fill="#003087"/>
  <rect x="440" y="80" width="10" height="10" fill="#003087"/>
  <rect x="80" y="90" width="10" height="10" fill="#003087"/>
  <rect x="140" y="90" width="10" height="10" fill="#003087"/>
  <rect x="160" y="90" width="10" height="10" fill="#003087"/>
  <rect x="170" y="90" width="10" height="10" fill="#003087"/>
  <rect x="190" y="90" width="10" height="10" fill="#003087"/>
  <rect x="200" y="90" width="10" height="10" fill="#003087"/>
  <rect x="220" y="90" width="10" height="10" fill="#003087"/>
  <rect x="230" y="90" width="10" height="10" fill="#003087"/>
  <rect x="240" y="90" width="10" height="10" fill="#003087"/>
  <rect x="250" y="90" width="10" height="10" fill="#003087"/>
  <rect x="310" y="90" width="10" height="10" fill="#003087"/>
  <rect x="320" y="90" width="10" height="10" fill="#003087"/>
  <rect x="360" y="90" width="10" height="10" fill="#003087"/>
  <rect x="380" y="90" width="10" height="10" fill="#003087"/>
  <rect x="440" y="90" width="10" height="10" fill="#003087"/>
  <rect x="80" y="100" width="10" height="10" fill="#003087"/>
  <rect x="100" y="100" width="10" height="10" fill="#003087"/>
  <rect x="110" y="100" width="10" height="10" fill="#003087"/>
  <rect x="120" y="100" width="10" height="10" fill="#003087"/>
  <rect x="140" y="100" width="10" height="10" fill="#003087"/>
  <rect x="180" y="100" width="10" height="10" fill="#003087"/>
  <rect x="200" y="100" width="10" height="10" fill="#003087"/>
  <rect x="240" y="100" width="10" height="10" fill="#003087"/>
  <rect x="250" y="100" width="10" height="10" fill="#003087"/>
  <rect x="260" y="100" width="10" height="10" fill="#003087"/>
  <rect x="290" y="100" width="10" height="10" fill="#003087"/>
  <rect x="340" y="100" width="10" height="10" fill="#003087"/>
  <rect x="360" y="100" width="10" height="10" fill="#003087"/>
  <rect x="380" y="100" width="10" height="10" fill="#003087"/>
  <rect x="400" y="100" width="10" height="10" fill="#003087"/>
  <rect x="410" y="100" width="10" height="10" fill="#003087"/>
  <rect x="420" y="100" width="10" height="10" fill="#003087"/>
  <rect x="440" y="100" width="10" height="10" fill="#003087"/>
  <rect x="80" y="110" width="10" height="10" fill="#003087"/>
  <rect x="100" y="110" width="10" height="10" fill="#003087"/>
  <rect x="110" y="110" width="10" height="10" fill="#003087"/>
  <rect x="120" y="110" width="10" height="10" fill="#003087"/>
  <rect x="140" y="110" width="10" height="10" fill="#003087"/>
  <rect x="170" y="110" width="10" height="10" fill="#003087"/>
  <rect x="190" y="110" width="10" height="10" fill="#003087"/>
  <rect x="220" y="110" width="10" height="10" fill="#003087"/>
  <rect x="260" y="110" width="10" height="10" fill="#003087"/>
  <rect x="280" y="110" width="10" height="10" fill="#003087"/>
  <rect x="290" y="110" width="10" height="10" fill="#003087"/>
  <rect x="300" y="110" width="10" height="10" fill="#003087"/>
  <rect x="310" y="110" width="10" height="10" fill="#003087"/>
  <rect x="320" y="110" width="10" height="10" fill="#003087"/>
  <rect x="330" y="110" width="10" height="10" fill="#003087"/>
  <rect x="340" y="110" width="10" height="10" fill="#003087"/>
  <rect x="360" y="110" width="10" height="10" fill="#003087"/>
  <rect x="380" y="110" width="10" height="10" fill="#003087"/>
  <rect x="400" y="110" width="10" height="10" fill="#003087"/>
  <rect x="410" y="110" width="10" height="10" fill="#003087"/>
  <rect x="420" y="110" width="10" height="10" fill="#003087"/>
  <rect x="440" y="110" width="10" height="10" fill="#003087"/>
  <rect x="80" y="120" width="10" height="10" fill="#003087"/>
  <rect x="100" y="120" width="10" height="10" fill="#003087"/>
  <rect x="110" y="120" width="10" height="10" fill="#003087"/>
  <rect x="120" y="120" width="10" height="10" fill="#003087"/>
  <rect x="140" y="120" width="10" height="10" fill="#003087"/>
  <rect x="180" y="120" width="10" height="10" fill="#003087"/>
  <rect x="190" y="120" width="10" height="10" fill="#003087"/>
  <rect x="200" y="120" width="10" height="10" fill="#003087"/>
  <rect x="210" y="120" width="10" height="10" fill="#003087"/>
  <rect x="230" y="120" width="10" height="10" fill="#003087"/>
  <rect x="250" y="120" width="10" height="10" fill="#003087"/>
  <rect x="260" y="120" width="10" height="10" fill="#003087"/>
  <rect x="270" y="120" width="10" height="10" fill="#003087"/>
  <rect x="290" y="120" width="10" height="10" fill="#003087"/>
  <rect x="310" y="120" width="10" height="10" fill="#003087"/>
  <rect x="340" y="120" width="10" height="10" fill="#003087"/>
  <rect x="350" y="120" width="10" height="10" fill="#003087"/>
  <rect x="380" y="120" width="10" height="10" fill="#003087"/>
  <rect x="400" y="120" width="10" height="10" fill="#003087"/>
  <rect x="410" y="120" width="10" height="10" fill="#003087"/>
  <rect x="420" y="120" width="10" height="10" fill="#003087"/>
  <rect x="440" y="120" width="10" height="10" fill="#003087"/>
  <rect x="80" y="130" width="10" height="10" fill="#003087"/>
  <rect x="140" y="130" width="10" height="10" fill="#003087"/>
  <rect x="160" y="130" width="10" height="10" fill="#003087"/>
  <rect x="180" y="130" width="10" height="10" fill="#003087"/>
  <rect x="210" y="130" width="10" height="10" fill="#003087"/>
  <rect x="230" y="130" width="10" height="10" fill="#003087"/>
  <rect x="250" y="130" width="10" height="10" fill="#003087"/>
  <rect x="260" y="130" width="10" height="10" fill="#003087"/>
  <rect x="270" y="130" width="10" height="10" fill="#003087"/>
  <rect x="290" y="130" width="10" height="10" fill="#003087"/>
  <rect x="300" y="130" width="10" height="10" fill="#003087"/>
  <rect x="360" y="130" width="10" height="10" fill="#003087"/>
  <rect x="380" y="130" width="10" height="10" fill="#003087"/>
  <rect x="440" y="130" width="10" height="10" fill="#003087"/>
  <rect x="80" y="140" width="10" height="10" fill="#003087"/>
  <rect x="90" y="140" width="10" height="10" fill="#003087"/>
  <rect x="100" y="140" width="10" height="10" fill="#003087"/>
  <rect x="110" y="140" width="10" height="10" fill="#003087"/>
  <rect x="120" y="140" width="10" height="10" fill="#003087"/>
  <rect x="130" y="140" width="10" height="10" fill="#003087"/>
  <rect x="140" y="140" width="10" height="10" fill="#003087"/>
  <rect x="160" y="140" width="10" height="10" fill="#003087"/>
  <rect x="180" y="140" width="10" height="10" fill="#003087"/>
  <rect x="200" y="140" width="10" height="10" fill="#003087"/>
  <rect x="220" y="140" width="10" height="10" fill="#003087"/>
  <rect x="240" y="140" width="10" height="10" fill="#003087"/>
  <rect x="260" y="140" width="10" height="10" fill="#003087"/>
  <rect x="280" y="140" width="10" height="10" fill="#003087"/>
  <rect x="300" y="140" width="10" height="10" fill="#003087"/>
  <rect x="320" y="140" width="10" height="10" fill="#003087"/>
  <rect x="340" y="140" width="10" height="10" fill="#003087"/>
  <rect x="360" y="140" width="10" height="10" fill="#003087"/>
  <rect x="380" y="140" width="10" height="10" fill="#003087"/>
  <rect x="390" y="140" width="10" height="10" fill="#003087"/>
  <rect x="400" y="140" width="10" height="10" fill="#003087"/>
  <rect x="410" y="140" width="10" height="10" fill="#003087"/>
  <rect x="420" y="140" width="10" height="10" fill="#003087"/>
  <rect x="430" y="140" width="10" height="10" fill="#003087"/>
  <rect x="440" y="140" width="10" height="10" fill="#003087"/>
  <rect x="160" y="150" width="10" height="10" fill="#003087"/>
  <rect x="170" y="150" width="10" height="10" fill="#003087"/>
  <rect x="200" y="150" width="10" height="10" fill="#003087"/>
  <rect x="260" y="150" width="10" height="10" fill="#003087"/>
  <rect x="270" y="150" width="10" height="10" fill="#003087"/>
  <rect x="300" y="150" width="10" height="10" fill="#003087"/>
  <rect x="310" y="150" width="10" height="10" fill="#003087"/>
  <rect x="330" y="150" width="10" height="10" fill="#003087"/>
  <rect x="120" y="160" width="10" height="10" fill="#003087"/>
  <rect x="130" y="160" width="10" height="10" fill="#003087"/>
  <rect x="140" y="160" width="10" height="10" fill="#003087"/>
  <rect x="150" y="160" width="10" height="10" fill="#003087"/>
  <rect x="170" y="160" width="10" height="10" fill="#003087"/>
  <rect x="200" y="160" width="10" height="10" fill="#003087"/>
  <rect x="230" y="160" width="10" height="10" fill="#003087"/>
  <rect x="250" y="160" width="10" height="10" fill="#003087"/>
  <rect x="280" y="160" width="10" height="10" fill="#003087"/>
  <rect x="310" y="160" width="10" height="10" fill="#003087"/>
  <rect x="330" y="160" width="10" height="10" fill="#003087"/>
  <rect x="350" y="160" width="10" height="10" fill="#003087"/>
  <rect x="360" y="160" width="10" height="10" fill="#003087"/>
  <rect x="380" y="160" width="10" height="10" fill="#003087"/>
  <rect x="390" y="160" width="10" height="10" fill="#003087"/>
  <rect x="430" y="160" width="10" height="10" fill="#003087"/>
  <rect x="80" y="170" width="10" height="10" fill="#003087"/>
  <rect x="100" y="170" width="10" height="10" fill="#003087"/>
  <rect x="120" y="170" width="10" height="10" fill="#003087"/>
  <rect x="130" y="170" width="10" height="10" fill="#003087"/>
  <rect x="150" y="170" width="10" height="10" fill="#003087"/>
  <rect x="160" y="170" width="10" height="10" fill="#003087"/>
  <rect x="170" y="170" width="10" height="10" fill="#003087"/>
  <rect x="200" y="170" width="10" height="10" fill="#003087"/>
  <rect x="210" y="170" width="10" height="10" fill="#003087"/>
  <rect x="220" y="170" width="10" height="10" fill="#003087"/>
  <rect x="240" y="170" width="10" height="10" fill="#003087"/>
  <rect x="250" y="170" width="10" height="10" fill="#003087"/>
  <rect x="260" y="170" width="10" height="10" fill="#003087"/>
  <rect x="280" y="170" width="10" height="10" fill="#003087"/>
  <rect x="300" y="170" width="10" height="10" fill="#003087"/>
  <rect x="320" y="170" width="10" height="10" fill="#003087"/>
  <rect x="340" y="170" width="10" height="10" fill="#003087"/>
  <rect x="390" y="170" width="10" height="10" fill="#003087"/>
  <rect x="400" y="170" width="10" height="10" fill="#003087"/>
  <rect x="80" y="180" width="10" height="10" fill="#003087"/>
  <rect x="90" y="180" width="10" height="10" fill="#003087"/>
  <rect x="120" y="180" width="10" height="10" fill="#003087"/>
  <rect x="140" y="180" width="10" height="10" fill="#003087"/>
  <rect x="150" y="180" width="10" height="10" fill="#003087"/>
  <rect x="160" y="180" width="10" height="10" fill="#003087"/>
  <rect x="180" y="180" width="10" height="10" fill="#003087"/>
  <rect x="190" y="180" width="10" height="10" fill="#003087"/>
  <rect x="200" y="180" width="10" height="10" fill="#003087"/>
  <rect x="240" y="180" width="10" height="10" fill="#003087"/>
  <rect x="270" y="180" width="10" height="10" fill="#003087"/>
  <rect x="290" y="180" width="10" height="10" fill="#003087"/>
  <rect x="320" y="180" width="10" height="10" fill="#003087"/>
  <rect x="330" y="180" width="10" height="10" fill="#003087"/>
  <rect x="340" y="180" width="10" height="10" fill="#003087"/>
  <rect x="350" y="180" width="10" height="10" fill="#003087"/>
  <rect x="370" y="180" width="10" height="10" fill="#003087"/>
  <rect x="80" y="190" width="10" height="10" fill="#003087"/>
  <rect x="90" y="190" width="10" height="10" fill="#003087"/>
  <rect x="100" y="190" width="10" height="10" fill="#003087"/>
  <rect x="110" y="190" width="10" height="10" fill="#003087"/>
  <rect x="120" y="190" width="10" height="10" fill="#003087"/>
  <rect x="130" y="190" width="10" height="10" fill="#003087"/>
  <rect x="160" y="190" width="10" height="10" fill="#003087"/>
  <rect x="170" y="190" width="10" height="10" fill="#003087"/>
  <rect x="200" y="190" width="10" height="10" fill="#003087"/>
  <rect x="210" y="190" width="10" height="10" fill="#003087"/>
  <rect x="220" y="190" width="10" height="10" fill="#003087"/>
  <rect x="230" y="190" width="10" height="10" fill="#003087"/>
  <rect x="240" y="190" width="10" height="10" fill="#003087"/>
  <rect x="280" y="190" width="10" height="10" fill="#003087"/>
  <rect x="340" y="190" width="10" height="10" fill="#003087"/>
  <rect x="350" y="190" width="10" height="10" fill="#003087"/>
  <rect x="360" y="190" width="10" height="10" fill="#003087"/>
  <rect x="370" y="190" width="10" height="10" fill="#003087"/>
  <rect x="420" y="190" width="10" height="10" fill="#003087"/>
  <rect x="430" y="190" width="10" height="10" fill="#003087"/>
  <rect x="80" y="200" width="10" height="10" fill="#003087"/>
  <rect x="100" y="200" width="10" height="10" fill="#003087"/>
  <rect x="140" y="200" width="10" height="10" fill="#003087"/>
  <rect x="150" y="200" width="10" height="10" fill="#003087"/>
  <rect x="170" y="200" width="10" height="10" fill="#003087"/>
  <rect x="180" y="200" width="10" height="10" fill="#003087"/>
  <rect x="190" y="200" width="10" height="10" fill="#003087"/>
  <rect x="200" y="200" width="10" height="10" fill="#003087"/>
  <rect x="210" y="200" width="10" height="10" fill="#003087"/>
  <rect x="220" y="200" width="10" height="10" fill="#003087"/>
  <rect x="230" y="200" width="10" height="10" fill="#003087"/>
  <rect x="240" y="200" width="10" height="10" fill="#003087"/>
  <rect x="260" y="200" width="10" height="10" fill="#003087"/>
  <rect x="290" y="200" width="10" height="10" fill="#003087"/>
  <rect x="310" y="200" width="10" height="10" fill="#003087"/>
  <rect x="370" y="200" width="10" height="10" fill="#003087"/>
  <rect x="380" y="200" width="10" height="10" fill="#003087"/>
  <rect x="390" y="200" width="10" height="10" fill="#003087"/>
  <rect x="420" y="200" width="10" height="10" fill="#003087"/>
  <rect x="430" y="200" width="10" height="10" fill="#003087"/>
  <rect x="440" y="200" width="10" height="10" fill="#003087"/>
  <rect x="100" y="210" width="10" height="10" fill="#003087"/>
  <rect x="110" y="210" width="10" height="10" fill="#003087"/>
  <rect x="120" y="210" width="10" height="10" fill="#003087"/>
  <rect x="130" y="210" width="10" height="10" fill="#003087"/>
  <rect x="160" y="210" width="10" height="10" fill="#003087"/>
  <rect x="200" y="210" width="10" height="10" fill="#003087"/>
  <rect x="230" y="210" width="10" height="10" fill="#003087"/>
  <rect x="270" y="210" width="10" height="10" fill="#003087"/>
  <rect x="280" y="210" width="10" height="10" fill="#003087"/>
  <rect x="300" y="210" width="10" height="10" fill="#003087"/>
  <rect x="320" y="210" width="10" height="10" fill="#003087"/>
  <rect x="340" y="210" width="10" height="10" fill="#003087"/>
  <rect x="350" y="210" width="10" height="10" fill="#003087"/>
  <rect x="370" y="210" width="10" height="10" fill="#003087"/>
  <rect x="390" y="210" width="10" height="10" fill="#003087"/>
  <rect x="400" y="210" width="10" height="10" fill="#003087"/>
  <rect x="420" y="210" width="10" height="10" fill="#003087"/>
  <rect x="80" y="220" width="10" height="10" fill="#003087"/>
  <rect x="90" y="220" width="10" height="10" fill="#003087"/>
  <rect x="140" y="220" width="10" height="10" fill="#003087"/>
  <rect x="230" y="220" width="10" height="10" fill="#003087"/>
  <rect x="250" y="220" width="10" height="10" fill="#003087"/>
  <rect x="260" y="220" width="10" height="10" fill="#003087"/>
  <rect x="280" y="220" width="10" height="10" fill="#003087"/>
  <rect x="290" y="220" width="10" height="10" fill="#003087"/>
  <rect x="300" y="220" width="10" height="10" fill="#003087"/>
  <rect x="320" y="220" width="10" height="10" fill="#003087"/>
  <rect x="330" y="220" width="10" height="10" fill="#003087"/>
  <rect x="340" y="220" width="10" height="10" fill="#003087"/>
  <rect x="350" y="220" width="10" height="10" fill="#003087"/>
  <rect x="380" y="220" width="10" height="10" fill="#003087"/>
  <rect x="400" y="220" width="10" height="10" fill="#003087"/>
  <rect x="410" y="220" width="10" height="10" fill="#003087"/>
  <rect x="420" y="220" width="10" height="10" fill="#003087"/>
  <rect x="80" y="230" width="10" height="10" fill="#003087"/>
  <rect x="110" y="230" width="10" height="10" fill="#003087"/>
  <rect x="130" y="230" width="10" height="10" fill="#003087"/>
  <rect x="170" y="230" width="10" height="10" fill="#003087"/>
  <rect x="200" y="230" width="10" height="10" fill="#003087"/>
  <rect x="210" y="230" width="10" height="10" fill="#003087"/>
  <rect x="220" y="230" width="10" height="10" fill="#003087"/>
  <rect x="240" y="230" width="10" height="10" fill="#003087"/>
  <rect x="290" y="230" width="10" height="10" fill="#003087"/>
  <rect x="300" y="230" width="10" height="10" fill="#003087"/>
  <rect x="370" y="230" width="10" height="10" fill="#003087"/>
  <rect x="380" y="230" width="10" height="10" fill="#003087"/>
  <rect x="420" y="230" width="10" height="10" fill="#003087"/>
  <rect x="440" y="230" width="10" height="10" fill="#003087"/>
  <rect x="80" y="240" width="10" height="10" fill="#003087"/>
  <rect x="100" y="240" width="10" height="10" fill="#003087"/>
  <rect x="110" y="240" width="10" height="10" fill="#003087"/>
  <rect x="140" y="240" width="10" height="10" fill="#003087"/>
  <rect x="180" y="240" width="10" height="10" fill="#003087"/>
  <rect x="210" y="240" width="10" height="10" fill="#003087"/>
  <rect x="230" y="240" width="10" height="10" fill="#003087"/>
  <rect x="260" y="240" width="10" height="10" fill="#003087"/>
  <rect x="300" y="240" width="10" height="10" fill="#003087"/>
  <rect x="310" y="240" width="10" height="10" fill="#003087"/>
  <rect x="320" y="240" width="10" height="10" fill="#003087"/>
  <rect x="350" y="240" width="10" height="10" fill="#003087"/>
  <rect x="370" y="240" width="10" height="10" fill="#003087"/>
  <rect x="380" y="240" width="10" height="10" fill="#003087"/>
  <rect x="390" y="240" width="10" height="10" fill="#003087"/>
  <rect x="410" y="240" width="10" height="10" fill="#003087"/>
  <rect x="420" y="240" width="10" height="10" fill="#003087"/>
  <rect x="440" y="240" width="10" height="10" fill="#003087"/>
  <rect x="80" y="250" width="10" height="10" fill="#003087"/>
  <rect x="120" y="250" width="10" height="10" fill="#003087"/>
  <rect x="130" y="250" width="10" height="10" fill="#003087"/>
  <rect x="150" y="250" width="10" height="10" fill="#003087"/>
  <rect x="170" y="250" width="10" height="10" fill="#003087"/>
  <rect x="230" y="250" width="10" height="10" fill="#003087"/>
  <rect x="250" y="250" width="10" height="10" fill="#003087"/>
  <rect x="260" y="250" width="10" height="10" fill="#003087"/>
  <rect x="270" y="250" width="10" height="10" fill="#003087"/>
  <rect x="280" y="250" width="10" height="10" fill="#003087"/>
  <rect x="330" y="250" width="10" height="10" fill="#003087"/>
  <rect x="340" y="250" width="10" height="10" fill="#003087"/>
  <rect x="350" y="250" width="10" height="10" fill="#003087"/>
  <rect x="360" y="250" width="10" height="10" fill="#003087"/>
  <rect x="400" y="250" width="10" height="10" fill="#003087"/>
  <rect x="420" y="250" width="10" height="10" fill="#003087"/>
  <rect x="90" y="260" width="10" height="10" fill="#003087"/>
  <rect x="110" y="260" width="10" height="10" fill="#003087"/>
  <rect x="120" y="260" width="10" height="10" fill="#003087"/>
  <rect x="140" y="260" width="10" height="10" fill="#003087"/>
  <rect x="150" y="260" width="10" height="10" fill="#003087"/>
  <rect x="160" y="260" width="10" height="10" fill="#003087"/>
  <rect x="170" y="260" width="10" height="10" fill="#003087"/>
  <rect x="180" y="260" width="10" height="10" fill="#003087"/>
  <rect x="190" y="260" width="10" height="10" fill="#003087"/>
  <rect x="200" y="260" width="10" height="10" fill="#003087"/>
  <rect x="210" y="260" width="10" height="10" fill="#003087"/>
  <rect x="240" y="260" width="10" height="10" fill="#003087"/>
  <rect x="260" y="260" width="10" height="10" fill="#003087"/>
  <rect x="270" y="260" width="10" height="10" fill="#003087"/>
  <rect x="300" y="260" width="10" height="10" fill="#003087"/>
  <rect x="330" y="260" width="10" height="10" fill="#003087"/>
  <rect x="350" y="260" width="10" height="10" fill="#003087"/>
  <rect x="380" y="260" width="10" height="10" fill="#003087"/>
  <rect x="390" y="260" width="10" height="10" fill="#003087"/>
  <rect x="420" y="260" width="10" height="10" fill="#003087"/>
  <rect x="80" y="270" width="10" height="10" fill="#003087"/>
  <rect x="90" y="270" width="10" height="10" fill="#003087"/>
  <rect x="120" y="270" width="10" height="10" fill="#003087"/>
  <rect x="130" y="270" width="10" height="10" fill="#003087"/>
  <rect x="150" y="270" width="10" height="10" fill="#003087"/>
  <rect x="170" y="270" width="10" height="10" fill="#003087"/>
  <rect x="190" y="270" width="10" height="10" fill="#003087"/>
  <rect x="210" y="270" width="10" height="10" fill="#003087"/>
  <rect x="240" y="270" width="10" height="10" fill="#003087"/>
  <rect x="270" y="270" width="10" height="10" fill="#003087"/>
  <rect x="310" y="270" width="10" height="10" fill="#003087"/>
  <rect x="350" y="270" width="10" height="10" fill="#003087"/>
  <rect x="370" y="270" width="10" height="10" fill="#003087"/>
  <rect x="380" y="270" width="10" height="10" fill="#003087"/>
  <rect x="420" y="270" width="10" height="10" fill="#003087"/>
  <rect x="430" y="270" width="10" height="10" fill="#003087"/>
  <rect x="440" y="270" width="10" height="10" fill="#003087"/>
  <rect x="110" y="280" width="10" height="10" fill="#003087"/>
  <rect x="120" y="280" width="10" height="10" fill="#003087"/>
  <rect x="140" y="280" width="10" height="10" fill="#003087"/>
  <rect x="190" y="280" width="10" height="10" fill="#003087"/>
  <rect x="230" y="280" width="10" height="10" fill="#003087"/>
  <rect x="240" y="280" width="10" height="10" fill="#003087"/>
  <rect x="260" y="280" width="10" height="10" fill="#003087"/>
  <rect x="270" y="280" width="10" height="10" fill="#003087"/>
  <rect x="320" y="280" width="10" height="10" fill="#003087"/>
  <rect x="370" y="280" width="10" height="10" fill="#003087"/>
  <rect x="380" y="280" width="10" height="10" fill="#003087"/>
  <rect x="410" y="280" width="10" height="10" fill="#003087"/>
  <rect x="420" y="280" width="10" height="10" fill="#003087"/>
  <rect x="430" y="280" width="10" height="10" fill="#003087"/>
  <rect x="440" y="280" width="10" height="10" fill="#003087"/>
  <rect x="80" y="290" width="10" height="10" fill="#003087"/>
  <rect x="90" y="290" width="10" height="10" fill="#003087"/>
  <rect x="100" y="290" width="10" height="10" fill="#003087"/>
  <rect x="110" y="290" width="10" height="10" fill="#003087"/>
  <rect x="190" y="290" width="10" height="10" fill="#003087"/>
  <rect x="220" y="290" width="10" height="10" fill="#003087"/>
  <rect x="250" y="290" width="10" height="10" fill="#003087"/>
  <rect x="270" y="290" width="10" height="10" fill="#003087"/>
  <rect x="290" y="290" width="10" height="10" fill="#003087"/>
  <rect x="310" y="290" width="10" height="10" fill="#003087"/>
  <rect x="330" y="290" width="10" height="10" fill="#003087"/>
  <rect x="340" y="290" width="10" height="10" fill="#003087"/>
  <rect x="350" y="290" width="10" height="10" fill="#003087"/>
  <rect x="400" y="290" width="10" height="10" fill="#003087"/>
  <rect x="420" y="290" width="10" height="10" fill="#003087"/>
  <rect x="80" y="300" width="10" height="10" fill="#003087"/>
  <rect x="140" y="300" width="10" height="10" fill="#003087"/>
  <rect x="150" y="300" width="10" height="10" fill="#003087"/>
  <rect x="170" y="300" width="10" height="10" fill="#003087"/>
  <rect x="180" y="300" width="10" height="10" fill="#003087"/>
  <rect x="190" y="300" width="10" height="10" fill="#003087"/>
  <rect x="200" y="300" width="10" height="10" fill="#003087"/>
  <rect x="210" y="300" width="10" height="10" fill="#003087"/>
  <rect x="220" y="300" width="10" height="10" fill="#003087"/>
  <rect x="230" y="300" width="10" height="10" fill="#003087"/>
  <rect x="260" y="300" width="10" height="10" fill="#003087"/>
  <rect x="280" y="300" width="10" height="10" fill="#003087"/>
  <rect x="300" y="300" width="10" height="10" fill="#003087"/>
  <rect x="320" y="300" width="10" height="10" fill="#003087"/>
  <rect x="350" y="300" width="10" height="10" fill="#003087"/>
  <rect x="360" y="300" width="10" height="10" fill="#003087"/>
  <rect x="380" y="300" width="10" height="10" fill="#003087"/>
  <rect x="410" y="300" width="10" height="10" fill="#003087"/>
  <rect x="420" y="300" width="10" height="10" fill="#003087"/>
  <rect x="100" y="310" width="10" height="10" fill="#003087"/>
  <rect x="110" y="310" width="10" height="10" fill="#003087"/>
  <rect x="120" y="310" width="10" height="10" fill="#003087"/>
  <rect x="130" y="310" width="10" height="10" fill="#003087"/>
  <rect x="170" y="310" width="10" height="10" fill="#003087"/>
  <rect x="190" y="310" width="10" height="10" fill="#003087"/>
  <rect x="230" y="310" width="10" height="10" fill="#003087"/>
  <rect x="250" y="310" width="10" height="10" fill="#003087"/>
  <rect x="260" y="310" width="10" height="10" fill="#003087"/>
  <rect x="270" y="310" width="10" height="10" fill="#003087"/>
  <rect x="300" y="310" width="10" height="10" fill="#003087"/>
  <rect x="320" y="310" width="10" height="10" fill="#003087"/>
  <rect x="340" y="310" width="10" height="10" fill="#003087"/>
  <rect x="360" y="310" width="10" height="10" fill="#003087"/>
  <rect x="380" y="310" width="10" height="10" fill="#003087"/>
  <rect x="390" y="310" width="10" height="10" fill="#003087"/>
  <rect x="420" y="310" width="10" height="10" fill="#003087"/>
  <rect x="430" y="310" width="10" height="10" fill="#003087"/>
  <rect x="90" y="320" width="10" height="10" fill="#003087"/>
  <rect x="110" y="320" width="10" height="10" fill="#003087"/>
  <rect x="120" y="320" width="10" height="10" fill="#003087"/>
  <rect x="140" y="320" width="10" height="10" fill="#003087"/>
  <rect x="170" y="320" width="10" height="10" fill="#003087"/>
  <rect x="180" y="320" width="10" height="10" fill="#003087"/>
  <rect x="190" y="320" width="10" height="10" fill="#003087"/>
  <rect x="220" y="320" width="10" height="10" fill="#003087"/>
  <rect x="230" y="320" width="10" height="10" fill="#003087"/>
  <rect x="250" y="320" width="10" height="10" fill="#003087"/>
  <rect x="300" y="320" width="10" height="10" fill="#003087"/>
  <rect x="310" y="320" width="10" height="10" fill="#003087"/>
  <rect x="330" y="320" width="10" height="10" fill="#003087"/>
  <rect x="340" y="320" width="10" height="10" fill="#003087"/>
  <rect x="350" y="320" width="10" height="10" fill="#003087"/>
  <rect x="380" y="320" width="10" height="10" fill="#003087"/>
  <rect x="410" y="320" width="10" height="10" fill="#003087"/>
  <rect x="420" y="320" width="10" height="10" fill="#003087"/>
  <rect x="430" y="320" width="10" height="10" fill="#003087"/>
  <rect x="440" y="320" width="10" height="10" fill="#003087"/>
  <rect x="80" y="330" width="10" height="10" fill="#003087"/>
  <rect x="130" y="330" width="10" height="10" fill="#003087"/>
  <rect x="150" y="330" width="10" height="10" fill="#003087"/>
  <rect x="170" y="330" width="10" height="10" fill="#003087"/>
  <rect x="180" y="330" width="10" height="10" fill="#003087"/>
  <rect x="200" y="330" width="10" height="10" fill="#003087"/>
  <rect x="210" y="330" width="10" height="10" fill="#003087"/>
  <rect x="240" y="330" width="10" height="10" fill="#003087"/>
  <rect x="250" y="330" width="10" height="10" fill="#003087"/>
  <rect x="260" y="330" width="10" height="10" fill="#003087"/>
  <rect x="280" y="330" width="10" height="10" fill="#003087"/>
  <rect x="320" y="330" width="10" height="10" fill="#003087"/>
  <rect x="360" y="330" width="10" height="10" fill="#003087"/>
  <rect x="380" y="330" width="10" height="10" fill="#003087"/>
  <rect x="400" y="330" width="10" height="10" fill="#003087"/>
  <rect x="430" y="330" width="10" height="10" fill="#003087"/>
  <rect x="100" y="340" width="10" height="10" fill="#003087"/>
  <rect x="120" y="340" width="10" height="10" fill="#003087"/>
  <rect x="140" y="340" width="10" height="10" fill="#003087"/>
  <rect x="230" y="340" width="10" height="10" fill="#003087"/>
  <rect x="260" y="340" width="10" height="10" fill="#003087"/>
  <rect x="270" y="340" width="10" height="10" fill="#003087"/>
  <rect x="290" y="340" width="10" height="10" fill="#003087"/>
  <rect x="310" y="340" width="10" height="10" fill="#003087"/>
  <rect x="320" y="340" width="10" height="10" fill="#003087"/>
  <rect x="340" y="340" width="10" height="10" fill="#003087"/>
  <rect x="360" y="340" width="10" height="10" fill="#003087"/>
  <rect x="370" y="340" width="10" height="10" fill="#003087"/>
  <rect x="390" y="340" width="10" height="10" fill="#003087"/>
  <rect x="420" y="340" width="10" height="10" fill="#003087"/>
  <rect x="110" y="350" width="10" height="10" fill="#003087"/>
  <rect x="120" y="350" width="10" height="10" fill="#003087"/>
  <rect x="130" y="350" width="10" height="10" fill="#003087"/>
  <rect x="150" y="350" width="10" height="10" fill="#003087"/>
  <rect x="180" y="350" width="10" height="10" fill="#003087"/>
  <rect x="200" y="350" width="10" height="10" fill="#003087"/>
  <rect x="230" y="350" width="10" height="10" fill="#003087"/>
  <rect x="270" y="350" width="10" height="10" fill="#003087"/>
  <rect x="310" y="350" width="10" height="10" fill="#003087"/>
  <rect x="380" y="350" width="10" height="10" fill="#003087"/>
  <rect x="390" y="350" width="10" height="10" fill="#003087"/>
  <rect x="400" y="350" width="10" height="10" fill="#003087"/>
  <rect x="420" y="350" width="10" height="10" fill="#003087"/>
  <rect x="80" y="360" width="10" height="10" fill="#003087"/>
  <rect x="90" y="360" width="10" height="10" fill="#003087"/>
  <rect x="110" y="360" width="10" height="10" fill="#003087"/>
  <rect x="120" y="360" width="10" height="10" fill="#003087"/>
  <rect x="130" y="360" width="10" height="10" fill="#003087"/>
  <rect x="140" y="360" width="10" height="10" fill="#003087"/>
  <rect x="150" y="360" width="10" height="10" fill="#003087"/>
  <rect x="180" y="360" width="10" height="10" fill="#003087"/>
  <rect x="200" y="360" width="10" height="10" fill="#003087"/>
  <rect x="230" y="360" width="10" height="10" fill="#003087"/>
  <rect x="300" y="360" width="10" height="10" fill="#003087"/>
  <rect x="350" y="360" width="10" height="10" fill="#003087"/>
  <rect x="360" y="360" width="10" height="10" fill="#003087"/>
  <rect x="370" y="360" width="10" height="10" fill="#003087"/>
  <rect x="380" y="360" width="10" height="10" fill="#003087"/>
  <rect x="390" y="360" width="10" height="10" fill="#003087"/>
  <rect x="400" y="360" width="10" height="10" fill="#003087"/>
  <rect x="420" y="360" width="10" height="10" fill="#003087"/>
  <rect x="160" y="370" width="10" height="10" fill="#003087"/>
  <rect x="170" y="370" width="10" height="10" fill="#003087"/>
  <rect x="190" y="370" width="10" height="10" fill="#003087"/>
  <rect x="200" y="370" width="10" height="10" fill="#003087"/>
  <rect x="220" y="370" width="10" height="10" fill="#003087"/>
  <rect x="250" y="370" width="10" height="10" fill="#003087"/>
  <rect x="280" y="370" width="10" height="10" fill="#003087"/>
  <rect x="310" y="370" width="10" height="10" fill="#003087"/>
  <rect x="330" y="370" width="10" height="10" fill="#003087"/>
  <rect x="360" y="370" width="10" height="10" fill="#003087"/>
  <rect x="400" y="370" width="10" height="10" fill="#003087"/>
  <rect x="410" y="370" width="10" height="10" fill="#003087"/>
  <rect x="430" y="370" width="10" height="10" fill="#003087"/>
  <rect x="80" y="380" width="10" height="10" fill="#003087"/>
  <rect x="90" y="380" width="10" height="10" fill="#003087"/>
  <rect x="100" y="380" width="10" height="10" fill="#003087"/>
  <rect x="110" y="380" width="10" height="10" fill="#003087"/>
  <rect x="120" y="380" width="10" height="10" fill="#003087"/>
  <rect x="130" y="380" width="10" height="10" fill="#003087"/>
  <rect x="140" y="380" width="10" height="10" fill="#003087"/>
  <rect x="160" y="380" width="10" height="10" fill="#003087"/>
  <rect x="170" y="380" width="10" height="10" fill="#003087"/>
  <rect x="200" y="380" width="10" height="10" fill="#003087"/>
  <rect x="210" y="380" width="10" height="10" fill="#003087"/>
  <rect x="220" y="380" width="10" height="10" fill="#003087"/>
  <rect x="250" y="380" width="10" height="10" fill="#003087"/>
  <rect x="260" y="380" width="10" height="10" fill="#003087"/>
  <rect x="290" y="380" width="10" height="10" fill="#003087"/>
  <rect x="300" y="380" width="10" height="10" fill="#003087"/>
  <rect x="310" y="380" width="10" height="10" fill="#003087"/>
  <rect x="320" y="380" width="10" height="10" fill="#003087"/>
  <rect x="330" y="380" width="10" height="10" fill="#003087"/>
  <rect x="340" y="380" width="10" height="10" fill="#003087"/>
  <rect x="360" y="380" width="10" height="10" fill="#003087"/>
  <rect x="380" y="380" width="10" height="10" fill="#003087"/>
  <rect x="400" y="380" width="10" height="10" fill="#003087"/>
  <rect x="410" y="380" width="10" height="10" fill="#003087"/>
  <rect x="420" y="380" width="10" height="10" fill="#003087"/>
  <rect x="80" y="390" width="10" height="10" fill="#003087"/>
  <rect x="140" y="390" width="10" height="10" fill="#003087"/>
  <rect x="160" y="390" width="10" height="10" fill="#003087"/>
  <rect x="170" y="390" width="10" height="10" fill="#003087"/>
  <rect x="190" y="390" width="10" height="10" fill="#003087"/>
  <rect x="220" y="390" width="10" height="10" fill="#003087"/>
  <rect x="230" y="390" width="10" height="10" fill="#003087"/>
  <rect x="240" y="390" width="10" height="10" fill="#003087"/>
  <rect x="260" y="390" width="10" height="10" fill="#003087"/>
  <rect x="270" y="390" width="10" height="10" fill="#003087"/>
  <rect x="290" y="390" width="10" height="10" fill="#003087"/>
  <rect x="320" y="390" width="10" height="10" fill="#003087"/>
  <rect x="340" y="390" width="10" height="10" fill="#003087"/>
  <rect x="360" y="390" width="10" height="10" fill="#003087"/>
  <rect x="400" y="390" width="10" height="10" fill="#003087"/>
  <rect x="420" y="390" width="10" height="10" fill="#003087"/>
  <rect x="80" y="400" width="10" height="10" fill="#003087"/>
  <rect x="100" y="400" width="10" height="10" fill="#003087"/>
  <rect x="110" y="400" width="10" height="10" fill="#003087"/>
  <rect x="120" y="400" width="10" height="10" fill="#003087"/>
  <rect x="140" y="400" width="10" height="10" fill="#003087"/>
  <rect x="160" y="400" width="10" height="10" fill="#003087"/>
  <rect x="180" y="400" width="10" height="10" fill="#003087"/>
  <rect x="190" y="400" width="10" height="10" fill="#003087"/>
  <rect x="200" y="400" width="10" height="10" fill="#003087"/>
  <rect x="220" y="400" width="10" height="10" fill="#003087"/>
  <rect x="230" y="400" width="10" height="10" fill="#003087"/>
  <rect x="260" y="400" width="10" height="10" fill="#003087"/>
  <rect x="280" y="400" width="10" height="10" fill="#003087"/>
  <rect x="300" y="400" width="10" height="10" fill="#003087"/>
  <rect x="310" y="400" width="10" height="10" fill="#003087"/>
  <rect x="320" y="400" width="10" height="10" fill="#003087"/>
  <rect x="360" y="400" width="10" height="10" fill="#003087"/>
  <rect x="370" y="400" width="10" height="10" fill="#003087"/>
  <rect x="380" y="400" width="10" height="10" fill="#003087"/>
  <rect x="390" y="400" width="10" height="10" fill="#003087"/>
  <rect x="400" y="400" width="10" height="10" fill="#003087"/>
  <rect x="410" y="400" width="10" height="10" fill="#003087"/>
  <rect x="420" y="400" width="10" height="10" fill="#003087"/>
  <rect x="430" y="400" width="10" height="10" fill="#003087"/>
  <rect x="440" y="400" width="10" height="10" fill="#003087"/>
  <rect x="80" y="410" width="10" height="10" fill="#003087"/>
  <rect x="100" y="410" width="10" height="10" fill="#003087"/>
  <rect x="110" y="410" width="10" height="10" fill="#003087"/>
  <rect x="120" y="410" width="10" height="10" fill="#003087"/>
  <rect x="140" y="410" width="10" height="10" fill="#003087"/>
  <rect x="170" y="410" width="10" height="10" fill="#003087"/>
  <rect x="180" y="410" width="10" height="10" fill="#003087"/>
  <rect x="210" y="410" width="10" height="10" fill="#003087"/>
  <rect x="230" y="410" width="10" height="10" fill="#003087"/>
  <rect x="240" y="410" width="10" height="10" fill="#003087"/>
  <rect x="280" y="410" width="10" height="10" fill="#003087"/>
  <rect x="290" y="410" width="10" height="10" fill="#003087"/>
  <rect x="340" y="410" width="10" height="10" fill="#003087"/>
  <rect x="350" y="410" width="10" height="10" fill="#003087"/>
  <rect x="380" y="410" width="10" height="10" fill="#003087"/>
  <rect x="390" y="410" width="10" height="10" fill="#003087"/>
  <rect x="410" y="410" width="10" height="10" fill="#003087"/>
  <rect x="80" y="420" width="10" height="10" fill="#003087"/>
  <rect x="100" y="420" width="10" height="10" fill="#003087"/>
  <rect x="110" y="420" width="10" height="10" fill="#003087"/>
  <rect x="120" y="420" width="10" height="10" fill="#003087"/>
  <rect x="140" y="420" width="10" height="10" fill="#003087"/>
  <rect x="190" y="420" width="10" height="10" fill="#003087"/>
  <rect x="200" y="420" width="10" height="10" fill="#003087"/>
  <rect x="240" y="420" width="10" height="10" fill="#003087"/>
  <rect x="270" y="420" width="10" height="10" fill="#003087"/>
  <rect x="330" y="420" width="10" height="10" fill="#003087"/>
  <rect x="340" y="420" width="10" height="10" fill="#003087"/>
  <rect x="350" y="420" width="10" height="10" fill="#003087"/>
  <rect x="380" y="420" width="10" height="10" fill="#003087"/>
  <rect x="390" y="420" width="10" height="10" fill="#003087"/>
  <rect x="410" y="420" width="10" height="10" fill="#003087"/>
  <rect x="420" y="420" width="10" height="10" fill="#003087"/>
  <rect x="430" y="420" width="10" height="10" fill="#003087"/>
  <rect x="80" y="430" width="10" height="10" fill="#003087"/>
  <rect x="140" y="430" width="10" height="10" fill="#003087"/>
  <rect x="180" y="430" width="10" height="10" fill="#003087"/>
  <rect x="190" y="430" width="10" height="10" fill="#003087"/>
  <rect x="210" y="430" width="10" height="10" fill="#003087"/>
  <rect x="220" y="430" width="10" height="10" fill="#003087"/>
  <rect x="230" y="430" width="10" height="10" fill="#003087"/>
  <rect x="260" y="430" width="10" height="10" fill="#003087"/>
  <rect x="290" y="430" width="10" height="10" fill="#003087"/>
  <rect x="300" y="430" width="10" height="10" fill="#003087"/>
  <rect x="320" y="430" width="10" height="10" fill="#003087"/>
  <rect x="340" y="430" width="10" height="10" fill="#003087"/>
  <rect x="380" y="430" width="10" height="10" fill="#003087"/>
  <rect x="390" y="430" width="10" height="10" fill="#003087"/>
  <rect x="420" y="430" width="10" height="10" fill="#003087"/>
  <rect x="430" y="430" width="10" height="10" fill="#003087"/>
  <rect x="80" y="440" width="10" height="10" fill="#003087"/>
  <rect x="90" y="440" width="10" height="10" fill="#003087"/>
  <rect x="100" y="440" width="10" height="10" fill="#003087"/>
  <rect x="110" y="440" width="10" height="10" fill="#003087"/>
  <rect x="120" y="440" width="10" height="10" fill="#003087"/>
  <rect x="130" y="440" width="10" height="10" fill="#003087"/>
  <rect x="140" y="440" width="10" height="10" fill="#003087"/>
  <rect x="180" y="440" width="10" height="10" fill="#003087"/>
  <rect x="220" y="440" width="10" height="10" fill="#003087"/>
  <rect x="240" y="440" width="10" height="10" fill="#003087"/>
  <rect x="250" y="440" width="10" height="10" fill="#003087"/>
  <rect x="260" y="440" width="10" height="10" fill="#003087"/>
  <rect x="290" y="440" width="10" height="10" fill="#003087"/>
  <rect x="310" y="440" width="10" height="10" fill="#003087"/>
  <rect x="320" y="440" width="10" height="10" fill="#003087"/>
  <rect x="350" y="440" width="10" height="10" fill="#003087"/>
  <rect x="370" y="440" width="10" height="10" fill="#003087"/>
  <rect x="400" y="440" width="10" height="10" fill="#003087"/>
  <rect x="420" y="440" width="10" height="10" fill="#003087"/>
  <rect x="430" y="440" width="10" height="10" fill="#003087"/>
  <rect x="440" y="440" width="10" height="10" fill="#003087"/>
  <rect x="201" y="233" width="128" height="64" rx="8" fill="white"/>
  <text x="265" y="265" text-anchor="middle" dominant-baseline="central" font-family="Arial,sans-serif" font-weight="bold" font-size="44" fill="#003087">LSEG</text>
</svg>